solid BGO
   facet normal 3.826834e-01 -9.238795e-01 -2.672264e-15
      outer loop
         vertex 7.603822e+01 -3.495060e+02 -6.350000e+01
         vertex 5.155541e+01 -3.596471e+02 -9.000000e+01
         vertex 1.933709e+02 -3.009052e+02 -6.350000e+01
      endloop
   endfacet
   facet normal 3.826834e-01 -9.238795e-01 -2.672264e-15
      outer loop
         vertex 1.933709e+02 -3.009052e+02 -6.350000e+01
         vertex 5.155541e+01 -3.596471e+02 -9.000000e+01
         vertex 2.178537e+02 -2.907641e+02 -9.000000e+01
      endloop
   endfacet
   facet normal 3.826834e-01 -9.238795e-01 -2.672264e-15
      outer loop
         vertex 1.933709e+02 -3.009052e+02 -6.350000e+01
         vertex 2.178537e+02 -2.907641e+02 -9.000000e+01
         vertex 1.933709e+02 -3.009052e+02 6.350000e+01
      endloop
   endfacet
   facet normal 3.826834e-01 -9.238795e-01 -2.672264e-15
      outer loop
         vertex 1.933709e+02 -3.009052e+02 6.350000e+01
         vertex 2.178537e+02 -2.907641e+02 -9.000000e+01
         vertex 2.178537e+02 -2.907641e+02 9.000000e+01
      endloop
   endfacet
   facet normal 3.826834e-01 -9.238795e-01 -2.672264e-15
      outer loop
         vertex 1.933709e+02 -3.009052e+02 6.350000e+01
         vertex 2.178537e+02 -2.907641e+02 9.000000e+01
         vertex 7.603822e+01 -3.495060e+02 6.350000e+01
      endloop
   endfacet
   facet normal 3.826834e-01 -9.238795e-01 -2.672264e-15
      outer loop
         vertex 7.603822e+01 -3.495060e+02 6.350000e+01
         vertex 2.178537e+02 -2.907641e+02 9.000000e+01
         vertex 5.155541e+01 -3.596471e+02 9.000000e+01
      endloop
   endfacet
   facet normal 3.826834e-01 -9.238795e-01 -2.672264e-15
      outer loop
         vertex 7.603822e+01 -3.495060e+02 6.350000e+01
         vertex 5.155541e+01 -3.596471e+02 9.000000e+01
         vertex 7.603822e+01 -3.495060e+02 -6.350000e+01
      endloop
   endfacet
   facet normal 3.826834e-01 -9.238795e-01 -2.672264e-15
      outer loop
         vertex 7.603822e+01 -3.495060e+02 -6.350000e+01
         vertex 5.155541e+01 -3.596471e+02 9.000000e+01
         vertex 5.155541e+01 -3.596471e+02 -9.000000e+01
      endloop
   endfacet
   facet normal -3.826834e-01 9.238795e-01 2.672264e-15
      outer loop
         vertex 2.114024e+01 -1.536023e+02 -3.925000e+01
         vertex 9.702613e+00 -1.583399e+02 -5.163000e+01
         vertex 2.114024e+01 -1.536023e+02 3.925000e+01
      endloop
   endfacet
   facet normal -3.826834e-01 9.238795e-01 2.672264e-15
      outer loop
         vertex 2.114024e+01 -1.536023e+02 3.925000e+01
         vertex 9.702613e+00 -1.583399e+02 -5.163000e+01
         vertex 9.702613e+00 -1.583399e+02 5.163000e+01
      endloop
   endfacet
   facet normal -3.826834e-01 9.238795e-01 2.672264e-15
      outer loop
         vertex 2.114024e+01 -1.536023e+02 3.925000e+01
         vertex 9.702613e+00 -1.583399e+02 5.163000e+01
         vertex 9.366479e+01 -1.235616e+02 3.925000e+01
      endloop
   endfacet
   facet normal -3.826834e-01 9.238795e-01 2.672264e-15
      outer loop
         vertex 9.366479e+01 -1.235616e+02 3.925000e+01
         vertex 9.702613e+00 -1.583399e+02 5.163000e+01
         vertex 1.051024e+02 -1.188240e+02 5.163000e+01
      endloop
   endfacet
   facet normal -3.826834e-01 9.238795e-01 2.672264e-15
      outer loop
         vertex 9.366479e+01 -1.235616e+02 3.925000e+01
         vertex 1.051024e+02 -1.188240e+02 5.163000e+01
         vertex 9.366479e+01 -1.235616e+02 -3.925000e+01
      endloop
   endfacet
   facet normal -3.826834e-01 9.238795e-01 2.672264e-15
      outer loop
         vertex 9.366479e+01 -1.235616e+02 -3.925000e+01
         vertex 1.051024e+02 -1.188240e+02 5.163000e+01
         vertex 1.051024e+02 -1.188240e+02 -5.163000e+01
      endloop
   endfacet
   facet normal -3.826834e-01 9.238795e-01 2.672264e-15
      outer loop
         vertex 9.366479e+01 -1.235616e+02 -3.925000e+01
         vertex 1.051024e+02 -1.188240e+02 -5.163000e+01
         vertex 2.114024e+01 -1.536023e+02 -3.925000e+01
      endloop
   endfacet
   facet normal -3.826834e-01 9.238795e-01 2.672264e-15
      outer loop
         vertex 2.114024e+01 -1.536023e+02 -3.925000e+01
         vertex 1.051024e+02 -1.188240e+02 -5.163000e+01
         vertex 9.702613e+00 -1.583399e+02 -5.163000e+01
      endloop
   endfacet
   facet normal -1.321942e-01 3.191449e-01 9.384408e-01
      outer loop
         vertex 1.159439e+02 -1.305692e+02 5.715150e+01
         vertex 1.051024e+02 -1.188240e+02 5.163000e+01
         vertex 1.034167e+01 -1.743111e+02 5.715150e+01
      endloop
   endfacet
   facet normal -1.321942e-01 3.191449e-01 9.384408e-01
      outer loop
         vertex 1.034167e+01 -1.743111e+02 5.715150e+01
         vertex 1.051024e+02 -1.188240e+02 5.163000e+01
         vertex 9.702613e+00 -1.583399e+02 5.163000e+01
      endloop
   endfacet
   facet normal -9.992004e-01 -3.998082e-02 6.977379e-15
      outer loop
         vertex 1.034167e+01 -1.743111e+02 5.715150e+01
         vertex 9.702613e+00 -1.583399e+02 5.163000e+01
         vertex 1.034167e+01 -1.743111e+02 -5.715150e+01
      endloop
   endfacet
   facet normal -9.992004e-01 -3.998082e-02 6.977379e-15
      outer loop
         vertex 1.034167e+01 -1.743111e+02 -5.715150e+01
         vertex 9.702613e+00 -1.583399e+02 5.163000e+01
         vertex 9.702613e+00 -1.583399e+02 -5.163000e+01
      endloop
   endfacet
   facet normal -1.321942e-01 3.191449e-01 -9.384408e-01
      outer loop
         vertex 1.034167e+01 -1.743111e+02 -5.715150e+01
         vertex 9.702613e+00 -1.583399e+02 -5.163000e+01
         vertex 1.159439e+02 -1.305692e+02 -5.715150e+01
      endloop
   endfacet
   facet normal -1.321942e-01 3.191449e-01 -9.384408e-01
      outer loop
         vertex 1.159439e+02 -1.305692e+02 -5.715150e+01
         vertex 9.702613e+00 -1.583399e+02 -5.163000e+01
         vertex 1.051024e+02 -1.188240e+02 -5.163000e+01
      endloop
   endfacet
   facet normal 7.348121e-01 6.782707e-01 -5.131166e-15
      outer loop
         vertex 1.159439e+02 -1.305692e+02 -5.715150e+01
         vertex 1.051024e+02 -1.188240e+02 -5.163000e+01
         vertex 1.159439e+02 -1.305692e+02 5.715150e+01
      endloop
   endfacet
   facet normal 7.348121e-01 6.782707e-01 -5.131166e-15
      outer loop
         vertex 1.159439e+02 -1.305692e+02 5.715150e+01
         vertex 1.051024e+02 -1.188240e+02 -5.163000e+01
         vertex 1.051024e+02 -1.188240e+02 5.163000e+01
      endloop
   endfacet
   facet normal -1.321394e-01 3.190127e-01 9.384935e-01
      outer loop
         vertex 1.804579e+02 -2.004826e+02 9.000000e+01
         vertex 1.159439e+02 -1.305692e+02 5.715150e+01
         vertex 1.415958e+01 -2.693656e+02 9.000000e+01
      endloop
   endfacet
   facet normal -1.321394e-01 3.190127e-01 9.384935e-01
      outer loop
         vertex 1.415958e+01 -2.693656e+02 9.000000e+01
         vertex 1.159439e+02 -1.305692e+02 5.715150e+01
         vertex 1.034167e+01 -1.743111e+02 5.715150e+01
      endloop
   endfacet
   facet normal -9.991943e-01 -4.013318e-02 6.977337e-15
      outer loop
         vertex 1.415958e+01 -2.693656e+02 9.000000e+01
         vertex 1.034167e+01 -1.743111e+02 5.715150e+01
         vertex 1.415958e+01 -2.693656e+02 -9.000000e+01
      endloop
   endfacet
   facet normal -9.991943e-01 -4.013318e-02 6.977337e-15
      outer loop
         vertex 1.415958e+01 -2.693656e+02 -9.000000e+01
         vertex 1.034167e+01 -1.743111e+02 5.715150e+01
         vertex 1.034167e+01 -1.743111e+02 -5.715150e+01
      endloop
   endfacet
   facet normal -9.238795e-01 -3.826834e-01 6.451416e-15
      outer loop
         vertex 5.155541e+01 -3.596471e+02 -9.000000e+01
         vertex 5.155541e+01 -3.596471e+02 9.000000e+01
         vertex 1.415958e+01 -2.693656e+02 -9.000000e+01
      endloop
   endfacet
   facet normal -9.238795e-01 -3.826834e-01 6.451416e-15
      outer loop
         vertex 1.415958e+01 -2.693656e+02 -9.000000e+01
         vertex 5.155541e+01 -3.596471e+02 9.000000e+01
         vertex 1.415958e+01 -2.693656e+02 9.000000e+01
      endloop
   endfacet
   facet normal -1.321394e-01 3.190127e-01 -9.384935e-01
      outer loop
         vertex 1.415958e+01 -2.693656e+02 -9.000000e+01
         vertex 1.034167e+01 -1.743111e+02 -5.715150e+01
         vertex 1.804579e+02 -2.004826e+02 -9.000000e+01
      endloop
   endfacet
   facet normal -1.321394e-01 3.190127e-01 -9.384935e-01
      outer loop
         vertex 1.804579e+02 -2.004826e+02 -9.000000e+01
         vertex 1.034167e+01 -1.743111e+02 -5.715150e+01
         vertex 1.159439e+02 -1.305692e+02 -5.715150e+01
      endloop
   endfacet
   facet normal -6.982963e-15 0.000000e+00 -1.000000e+00
      outer loop
         vertex 2.178537e+02 -2.907641e+02 -9.000000e+01
         vertex 5.155541e+01 -3.596471e+02 -9.000000e+01
         vertex 1.804579e+02 -2.004826e+02 -9.000000e+01
      endloop
   endfacet
   facet normal -6.982963e-15 0.000000e+00 -1.000000e+00
      outer loop
         vertex 1.804579e+02 -2.004826e+02 -9.000000e+01
         vertex 5.155541e+01 -3.596471e+02 -9.000000e+01
         vertex 1.415958e+01 -2.693656e+02 -9.000000e+01
      endloop
   endfacet
   facet normal 6.982963e-15 0.000000e+00 1.000000e+00
      outer loop
         vertex 5.155541e+01 -3.596471e+02 9.000000e+01
         vertex 2.178537e+02 -2.907641e+02 9.000000e+01
         vertex 1.415958e+01 -2.693656e+02 9.000000e+01
      endloop
   endfacet
   facet normal 6.982963e-15 0.000000e+00 1.000000e+00
      outer loop
         vertex 1.415958e+01 -2.693656e+02 9.000000e+01
         vertex 2.178537e+02 -2.907641e+02 9.000000e+01
         vertex 1.804579e+02 -2.004826e+02 9.000000e+01
      endloop
   endfacet
   facet normal 7.349155e-01 6.781586e-01 -5.131888e-15
      outer loop
         vertex 1.804579e+02 -2.004826e+02 -9.000000e+01
         vertex 1.159439e+02 -1.305692e+02 -5.715150e+01
         vertex 1.804579e+02 -2.004826e+02 9.000000e+01
      endloop
   endfacet
   facet normal 7.349155e-01 6.781586e-01 -5.131888e-15
      outer loop
         vertex 1.804579e+02 -2.004826e+02 9.000000e+01
         vertex 1.159439e+02 -1.305692e+02 -5.715150e+01
         vertex 1.159439e+02 -1.305692e+02 5.715150e+01
      endloop
   endfacet
   facet normal 9.238795e-01 3.826834e-01 -6.451416e-15
      outer loop
         vertex 2.178537e+02 -2.907641e+02 9.000000e+01
         vertex 2.178537e+02 -2.907641e+02 -9.000000e+01
         vertex 1.804579e+02 -2.004826e+02 9.000000e+01
      endloop
   endfacet
   facet normal 9.238795e-01 3.826834e-01 -6.451416e-15
      outer loop
         vertex 1.804579e+02 -2.004826e+02 9.000000e+01
         vertex 2.178537e+02 -2.907641e+02 -9.000000e+01
         vertex 1.804579e+02 -2.004826e+02 -9.000000e+01
      endloop
   endfacet
   facet normal -9.238795e-01 -3.826834e-01 6.451416e-15
      outer loop
         vertex 9.940550e+01 -1.374209e+02 -3.925000e+01
         vertex 9.940550e+01 -1.374209e+02 3.925000e+01
         vertex 9.366479e+01 -1.235616e+02 -3.925000e+01
      endloop
   endfacet
   facet normal -9.238795e-01 -3.826834e-01 6.451416e-15
      outer loop
         vertex 9.366479e+01 -1.235616e+02 -3.925000e+01
         vertex 9.940550e+01 -1.374209e+02 3.925000e+01
         vertex 9.366479e+01 -1.235616e+02 3.925000e+01
      endloop
   endfacet
   facet normal 6.982963e-15 0.000000e+00 1.000000e+00
      outer loop
         vertex 2.688096e+01 -1.674616e+02 -3.925000e+01
         vertex 9.940550e+01 -1.374209e+02 -3.925000e+01
         vertex 2.114024e+01 -1.536023e+02 -3.925000e+01
      endloop
   endfacet
   facet normal 6.982963e-15 0.000000e+00 1.000000e+00
      outer loop
         vertex 2.114024e+01 -1.536023e+02 -3.925000e+01
         vertex 9.940550e+01 -1.374209e+02 -3.925000e+01
         vertex 9.366479e+01 -1.235616e+02 -3.925000e+01
      endloop
   endfacet
   facet normal 9.238795e-01 3.826834e-01 -6.451416e-15
      outer loop
         vertex 2.688096e+01 -1.674616e+02 3.925000e+01
         vertex 2.688096e+01 -1.674616e+02 -3.925000e+01
         vertex 2.114024e+01 -1.536023e+02 3.925000e+01
      endloop
   endfacet
   facet normal 9.238795e-01 3.826834e-01 -6.451416e-15
      outer loop
         vertex 2.114024e+01 -1.536023e+02 3.925000e+01
         vertex 2.688096e+01 -1.674616e+02 -3.925000e+01
         vertex 2.114024e+01 -1.536023e+02 -3.925000e+01
      endloop
   endfacet
   facet normal -6.982963e-15 0.000000e+00 -1.000000e+00
      outer loop
         vertex 9.940550e+01 -1.374209e+02 3.925000e+01
         vertex 2.688096e+01 -1.674616e+02 3.925000e+01
         vertex 9.366479e+01 -1.235616e+02 3.925000e+01
      endloop
   endfacet
   facet normal -6.982963e-15 0.000000e+00 -1.000000e+00
      outer loop
         vertex 9.366479e+01 -1.235616e+02 3.925000e+01
         vertex 2.688096e+01 -1.674616e+02 3.925000e+01
         vertex 2.114024e+01 -1.536023e+02 3.925000e+01
      endloop
   endfacet
   facet normal -7.071243e-01 -7.070892e-01 4.937823e-15
      outer loop
         vertex 1.442152e+02 -1.822329e+02 6.350000e+01
         vertex 9.940550e+01 -1.374209e+02 3.925000e+01
         vertex 1.442152e+02 -1.822329e+02 -6.350000e+01
      endloop
   endfacet
   facet normal -7.071243e-01 -7.070892e-01 4.937823e-15
      outer loop
         vertex 1.442152e+02 -1.822329e+02 -6.350000e+01
         vertex 9.940550e+01 -1.374209e+02 3.925000e+01
         vertex 9.940550e+01 -1.374209e+02 -3.925000e+01
      endloop
   endfacet
   facet normal 1.464378e-01 -3.535322e-01 9.238890e-01
      outer loop
         vertex 1.442152e+02 -1.822329e+02 -6.350000e+01
         vertex 9.940550e+01 -1.374209e+02 -3.925000e+01
         vertex 2.688253e+01 -2.308337e+02 -6.350000e+01
      endloop
   endfacet
   facet normal 1.464378e-01 -3.535322e-01 9.238890e-01
      outer loop
         vertex 2.688253e+01 -2.308337e+02 -6.350000e+01
         vertex 9.940550e+01 -1.374209e+02 -3.925000e+01
         vertex 2.688096e+01 -1.674616e+02 -3.925000e+01
      endloop
   endfacet
   facet normal 6.982963e-15 0.000000e+00 1.000000e+00
      outer loop
         vertex 7.603822e+01 -3.495060e+02 -6.350000e+01
         vertex 1.933709e+02 -3.009052e+02 -6.350000e+01
         vertex 2.688253e+01 -2.308337e+02 -6.350000e+01
      endloop
   endfacet
   facet normal 6.982963e-15 0.000000e+00 1.000000e+00
      outer loop
         vertex 2.688253e+01 -2.308337e+02 -6.350000e+01
         vertex 1.933709e+02 -3.009052e+02 -6.350000e+01
         vertex 1.442152e+02 -1.822329e+02 -6.350000e+01
      endloop
   endfacet
   facet normal 1.000000e+00 2.482892e-05 -6.982963e-15
      outer loop
         vertex 2.688253e+01 -2.308337e+02 -6.350000e+01
         vertex 2.688096e+01 -1.674616e+02 -3.925000e+01
         vertex 2.688253e+01 -2.308337e+02 6.350000e+01
      endloop
   endfacet
   facet normal 1.000000e+00 2.482892e-05 -6.982963e-15
      outer loop
         vertex 2.688253e+01 -2.308337e+02 6.350000e+01
         vertex 2.688096e+01 -1.674616e+02 -3.925000e+01
         vertex 2.688096e+01 -1.674616e+02 3.925000e+01
      endloop
   endfacet
   facet normal 9.238795e-01 3.826834e-01 -6.451416e-15
      outer loop
         vertex 7.603822e+01 -3.495060e+02 6.350000e+01
         vertex 7.603822e+01 -3.495060e+02 -6.350000e+01
         vertex 2.688253e+01 -2.308337e+02 6.350000e+01
      endloop
   endfacet
   facet normal 9.238795e-01 3.826834e-01 -6.451416e-15
      outer loop
         vertex 2.688253e+01 -2.308337e+02 6.350000e+01
         vertex 7.603822e+01 -3.495060e+02 -6.350000e+01
         vertex 2.688253e+01 -2.308337e+02 -6.350000e+01
      endloop
   endfacet
   facet normal -9.238795e-01 -3.826834e-01 6.451416e-15
      outer loop
         vertex 1.933709e+02 -3.009052e+02 -6.350000e+01
         vertex 1.933709e+02 -3.009052e+02 6.350000e+01
         vertex 1.442152e+02 -1.822329e+02 -6.350000e+01
      endloop
   endfacet
   facet normal -9.238795e-01 -3.826834e-01 6.451416e-15
      outer loop
         vertex 1.442152e+02 -1.822329e+02 -6.350000e+01
         vertex 1.933709e+02 -3.009052e+02 6.350000e+01
         vertex 1.442152e+02 -1.822329e+02 6.350000e+01
      endloop
   endfacet
   facet normal 1.464378e-01 -3.535322e-01 -9.238890e-01
      outer loop
         vertex 2.688253e+01 -2.308337e+02 6.350000e+01
         vertex 2.688096e+01 -1.674616e+02 3.925000e+01
         vertex 1.442152e+02 -1.822329e+02 6.350000e+01
      endloop
   endfacet
   facet normal 1.464378e-01 -3.535322e-01 -9.238890e-01
      outer loop
         vertex 1.442152e+02 -1.822329e+02 6.350000e+01
         vertex 2.688096e+01 -1.674616e+02 3.925000e+01
         vertex 9.940550e+01 -1.374209e+02 3.925000e+01
      endloop
   endfacet
   facet normal -6.982963e-15 0.000000e+00 -1.000000e+00
      outer loop
         vertex 1.933709e+02 -3.009052e+02 6.350000e+01
         vertex 7.603822e+01 -3.495060e+02 6.350000e+01
         vertex 1.442152e+02 -1.822329e+02 6.350000e+01
      endloop
   endfacet
   facet normal -6.982963e-15 0.000000e+00 -1.000000e+00
      outer loop
         vertex 1.442152e+02 -1.822329e+02 6.350000e+01
         vertex 7.603822e+01 -3.495060e+02 6.350000e+01
         vertex 2.688253e+01 -2.308337e+02 6.350000e+01
      endloop
   endfacet
endsolid