solid Ge
   facet normal -7.250388e-01 3.003209e-01 -6.197790e-01
      outer loop
         vertex -2.904062e+02 1.202902e+02 -1.909044e+02
         vertex -2.878213e+02 1.258519e+02 -1.912333e+02
         vertex -2.646392e+02 1.096171e+02 -2.262194e+02
      endloop
   endfacet
   facet normal -7.250388e-01 3.003209e-01 -6.197790e-01
      outer loop
         vertex -2.951338e+02 1.028432e+02 -1.938281e+02
         vertex -2.940968e+02 1.086777e+02 -1.922140e+02
         vertex -2.646392e+02 1.096171e+02 -2.262194e+02
      endloop
   endfacet
   facet normal -7.250388e-01 3.003209e-01 -6.197790e-01
      outer loop
         vertex -2.646392e+02 1.096171e+02 -2.262194e+02
         vertex -2.940968e+02 1.086777e+02 -1.922140e+02
         vertex -2.925111e+02 1.145297e+02 -1.912333e+02
      endloop
   endfacet
   facet normal -7.250388e-01 3.003209e-01 -6.197790e-01
      outer loop
         vertex -2.646392e+02 1.096171e+02 -2.262194e+02
         vertex -2.925111e+02 1.145297e+02 -1.912333e+02
         vertex -2.904062e+02 1.202902e+02 -1.909044e+02
      endloop
   endfacet
   facet normal -7.250388e-01 3.003209e-01 -6.197790e-01
      outer loop
         vertex -2.948121e+02 8.651787e+01 -2.021150e+02
         vertex -2.954948e+02 9.165914e+01 -1.988252e+02
         vertex -2.646392e+02 1.096171e+02 -2.262194e+02
      endloop
   endfacet
   facet normal -7.250388e-01 3.003209e-01 -6.197790e-01
      outer loop
         vertex -2.646392e+02 1.096171e+02 -2.262194e+02
         vertex -2.954948e+02 9.165914e+01 -1.988252e+02
         vertex -2.956027e+02 9.713492e+01 -1.960456e+02
      endloop
   endfacet
   facet normal -7.250388e-01 3.003209e-01 -6.197790e-01
      outer loop
         vertex -2.646392e+02 1.096171e+02 -2.262194e+02
         vertex -2.956027e+02 9.713492e+01 -1.960456e+02
         vertex -2.951338e+02 1.028432e+02 -1.938281e+02
      endloop
   endfacet
   facet normal -7.250388e-01 3.003209e-01 -6.197790e-01
      outer loop
         vertex -2.894945e+02 7.401723e+01 -2.143931e+02
         vertex -2.917837e+02 7.761399e+01 -2.099722e+02
         vertex -2.646392e+02 1.096171e+02 -2.262194e+02
      endloop
   endfacet
   facet normal -7.250388e-01 3.003209e-01 -6.197790e-01
      outer loop
         vertex -2.646392e+02 1.096171e+02 -2.262194e+02
         vertex -2.917837e+02 7.761399e+01 -2.099722e+02
         vertex -2.935674e+02 8.180690e+01 -2.058539e+02
      endloop
   endfacet
   facet normal -7.250388e-01 3.003209e-01 -6.197790e-01
      outer loop
         vertex -2.646392e+02 1.096171e+02 -2.262194e+02
         vertex -2.935674e+02 8.180690e+01 -2.058539e+02
         vertex -2.948121e+02 8.651787e+01 -2.021150e+02
      endloop
   endfacet
   facet normal -7.250388e-01 3.003209e-01 -6.197790e-01
      outer loop
         vertex -2.800614e+02 6.741112e+01 -2.286293e+02
         vertex -2.835782e+02 6.886783e+01 -2.238094e+02
         vertex -2.646392e+02 1.096171e+02 -2.262194e+02
      endloop
   endfacet
   facet normal -7.250388e-01 3.003209e-01 -6.197790e-01
      outer loop
         vertex -2.646392e+02 1.096171e+02 -2.262194e+02
         vertex -2.835782e+02 6.886783e+01 -2.238094e+02
         vertex -2.867422e+02 7.108363e+01 -2.190343e+02
      endloop
   endfacet
   facet normal -7.250388e-01 3.003209e-01 -6.197790e-01
      outer loop
         vertex -2.646392e+02 1.096171e+02 -2.262194e+02
         vertex -2.867422e+02 7.108363e+01 -2.190343e+02
         vertex -2.894945e+02 7.401723e+01 -2.143931e+02
      endloop
   endfacet
   facet normal -7.250388e-01 3.003209e-01 -6.197790e-01
      outer loop
         vertex -2.680747e+02 6.779338e+01 -2.424665e+02
         vertex -2.722368e+02 6.686884e+01 -2.380456e+02
         vertex -2.646392e+02 1.096171e+02 -2.262194e+02
      endloop
   endfacet
   facet normal -7.250388e-01 3.003209e-01 -6.197790e-01
      outer loop
         vertex -2.646392e+02 1.096171e+02 -2.262194e+02
         vertex -2.722368e+02 6.686884e+01 -2.380456e+02
         vertex -2.762573e+02 6.674063e+01 -2.334044e+02
      endloop
   endfacet
   facet normal -7.250388e-01 3.003209e-01 -6.197790e-01
      outer loop
         vertex -2.646392e+02 1.096171e+02 -2.262194e+02
         vertex -2.762573e+02 6.674063e+01 -2.334044e+02
         vertex -2.800614e+02 6.741112e+01 -2.286293e+02
      endloop
   endfacet
   facet normal -7.250388e-01 3.003209e-01 -6.197790e-01
      outer loop
         vertex -2.555192e+02 7.510071e+01 -2.536135e+02
         vertex -2.596373e+02 7.194801e+01 -2.503237e+02
         vertex -2.646392e+02 1.096171e+02 -2.262194e+02
      endloop
   endfacet
   facet normal -7.250388e-01 3.003209e-01 -6.197790e-01
      outer loop
         vertex -2.646392e+02 1.096171e+02 -2.262194e+02
         vertex -2.596373e+02 7.194801e+01 -2.503237e+02
         vertex -2.638487e+02 6.949701e+01 -2.465848e+02
      endloop
   endfacet
   facet normal -7.250388e-01 3.003209e-01 -6.197790e-01
      outer loop
         vertex -2.646392e+02 1.096171e+02 -2.262194e+02
         vertex -2.638487e+02 6.949701e+01 -2.465848e+02
         vertex -2.680747e+02 6.779338e+01 -2.424665e+02
      endloop
   endfacet
   facet normal -7.250388e-01 3.003209e-01 -6.197790e-01
      outer loop
         vertex -2.444737e+02 8.812317e+01 -2.602247e+02
         vertex -2.478661e+02 8.326432e+01 -2.586106e+02
         vertex -2.646392e+02 1.096171e+02 -2.262194e+02
      endloop
   endfacet
   facet normal -7.250388e-01 3.003209e-01 -6.197790e-01
      outer loop
         vertex -2.646392e+02 1.096171e+02 -2.262194e+02
         vertex -2.478661e+02 8.326432e+01 -2.586106e+02
         vertex -2.515709e+02 7.889638e+01 -2.563931e+02
      endloop
   endfacet
   facet normal -7.250388e-01 3.003209e-01 -6.197790e-01
      outer loop
         vertex -2.646392e+02 1.096171e+02 -2.262194e+02
         vertex -2.515709e+02 7.889638e+01 -2.563931e+02
         vertex -2.555192e+02 7.510071e+01 -2.536135e+02
      endloop
   endfacet
   facet normal -7.250388e-01 3.003209e-01 -6.197790e-01
      outer loop
         vertex -2.367672e+02 1.047046e+02 -2.612054e+02
         vertex -2.388721e+02 9.894407e+01 -2.615343e+02
         vertex -2.646392e+02 1.096171e+02 -2.262194e+02
      endloop
   endfacet
   facet normal -7.250388e-01 3.003209e-01 -6.197790e-01
      outer loop
         vertex -2.646392e+02 1.096171e+02 -2.262194e+02
         vertex -2.388721e+02 9.894407e+01 -2.615343e+02
         vertex -2.414570e+02 9.338241e+01 -2.612054e+02
      endloop
   endfacet
   facet normal -7.250388e-01 3.003209e-01 -6.197790e-01
      outer loop
         vertex -2.646392e+02 1.096171e+02 -2.262194e+02
         vertex -2.414570e+02 9.338241e+01 -2.612054e+02
         vertex -2.444737e+02 8.812317e+01 -2.602247e+02
      endloop
   endfacet
   facet normal -7.250388e-01 3.003209e-01 -6.197790e-01
      outer loop
         vertex -2.336757e+02 1.220993e+02 -2.563931e+02
         vertex -2.341446e+02 1.163910e+02 -2.586106e+02
         vertex -2.646392e+02 1.096171e+02 -2.262194e+02
      endloop
   endfacet
   facet normal -7.250388e-01 3.003209e-01 -6.197790e-01
      outer loop
         vertex -2.646392e+02 1.096171e+02 -2.262194e+02
         vertex -2.341446e+02 1.163910e+02 -2.586106e+02
         vertex -2.351815e+02 1.105565e+02 -2.602247e+02
      endloop
   endfacet
   facet normal -7.250388e-01 3.003209e-01 -6.197790e-01
      outer loop
         vertex -2.646392e+02 1.096171e+02 -2.262194e+02
         vertex -2.351815e+02 1.105565e+02 -2.602247e+02
         vertex -2.367672e+02 1.047046e+02 -2.612054e+02
      endloop
   endfacet
   facet normal -7.250388e-01 3.003209e-01 -6.197790e-01
      outer loop
         vertex -2.357110e+02 1.374274e+02 -2.465848e+02
         vertex -2.344662e+02 1.327164e+02 -2.503237e+02
         vertex -2.646392e+02 1.096171e+02 -2.262194e+02
      endloop
   endfacet
   facet normal -7.250388e-01 3.003209e-01 -6.197790e-01
      outer loop
         vertex -2.646392e+02 1.096171e+02 -2.262194e+02
         vertex -2.344662e+02 1.327164e+02 -2.503237e+02
         vertex -2.337836e+02 1.275751e+02 -2.536135e+02
      endloop
   endfacet
   facet normal -7.250388e-01 3.003209e-01 -6.197790e-01
      outer loop
         vertex -2.646392e+02 1.096171e+02 -2.262194e+02
         vertex -2.337836e+02 1.275751e+02 -2.536135e+02
         vertex -2.336757e+02 1.220993e+02 -2.563931e+02
      endloop
   endfacet
   facet normal -7.250388e-01 3.003209e-01 -6.197790e-01
      outer loop
         vertex -2.425361e+02 1.481506e+02 -2.334044e+02
         vertex -2.397839e+02 1.452170e+02 -2.380456e+02
         vertex -2.646392e+02 1.096171e+02 -2.262194e+02
      endloop
   endfacet
   facet normal -7.250388e-01 3.003209e-01 -6.197790e-01
      outer loop
         vertex -2.646392e+02 1.096171e+02 -2.262194e+02
         vertex -2.397839e+02 1.452170e+02 -2.380456e+02
         vertex -2.374946e+02 1.416203e+02 -2.424665e+02
      endloop
   endfacet
   facet normal -7.250388e-01 3.003209e-01 -6.197790e-01
      outer loop
         vertex -2.646392e+02 1.096171e+02 -2.262194e+02
         vertex -2.374946e+02 1.416203e+02 -2.424665e+02
         vertex -2.357110e+02 1.374274e+02 -2.465848e+02
      endloop
   endfacet
   facet normal -7.250388e-01 3.003209e-01 -6.197790e-01
      outer loop
         vertex -2.530211e+02 1.524936e+02 -2.190343e+02
         vertex -2.492170e+02 1.518231e+02 -2.238094e+02
         vertex -2.646392e+02 1.096171e+02 -2.262194e+02
      endloop
   endfacet
   facet normal -7.250388e-01 3.003209e-01 -6.197790e-01
      outer loop
         vertex -2.646392e+02 1.096171e+02 -2.262194e+02
         vertex -2.492170e+02 1.518231e+02 -2.238094e+02
         vertex -2.457002e+02 1.503664e+02 -2.286293e+02
      endloop
   endfacet
   facet normal -7.250388e-01 3.003209e-01 -6.197790e-01
      outer loop
         vertex -2.646392e+02 1.096171e+02 -2.262194e+02
         vertex -2.457002e+02 1.503664e+02 -2.286293e+02
         vertex -2.425361e+02 1.481506e+02 -2.334044e+02
      endloop
   endfacet
   facet normal -7.250388e-01 3.003209e-01 -6.197790e-01
      outer loop
         vertex -2.654297e+02 1.497373e+02 -2.058539e+02
         vertex -2.612036e+02 1.514409e+02 -2.099722e+02
         vertex -2.646392e+02 1.096171e+02 -2.262194e+02
      endloop
   endfacet
   facet normal -7.250388e-01 3.003209e-01 -6.197790e-01
      outer loop
         vertex -2.646392e+02 1.096171e+02 -2.262194e+02
         vertex -2.612036e+02 1.514409e+02 -2.099722e+02
         vertex -2.570416e+02 1.523654e+02 -2.143931e+02
      endloop
   endfacet
   facet normal -7.250388e-01 3.003209e-01 -6.197790e-01
      outer loop
         vertex -2.646392e+02 1.096171e+02 -2.262194e+02
         vertex -2.570416e+02 1.523654e+02 -2.143931e+02
         vertex -2.530211e+02 1.524936e+02 -2.190343e+02
      endloop
   endfacet
   facet normal -7.250388e-01 3.003209e-01 -6.197790e-01
      outer loop
         vertex -2.777074e+02 1.403379e+02 -1.960456e+02
         vertex -2.737592e+02 1.441336e+02 -1.988252e+02
         vertex -2.646392e+02 1.096171e+02 -2.262194e+02
      endloop
   endfacet
   facet normal -7.250388e-01 3.003209e-01 -6.197790e-01
      outer loop
         vertex -2.646392e+02 1.096171e+02 -2.262194e+02
         vertex -2.737592e+02 1.441336e+02 -1.988252e+02
         vertex -2.696410e+02 1.472863e+02 -2.021150e+02
      endloop
   endfacet
   facet normal -7.250388e-01 3.003209e-01 -6.197790e-01
      outer loop
         vertex -2.646392e+02 1.096171e+02 -2.262194e+02
         vertex -2.696410e+02 1.472863e+02 -2.021150e+02
         vertex -2.654297e+02 1.497373e+02 -2.058539e+02
      endloop
   endfacet
   facet normal -7.250388e-01 3.003209e-01 -6.197790e-01
      outer loop
         vertex -2.878213e+02 1.258519e+02 -1.912333e+02
         vertex -2.848046e+02 1.311111e+02 -1.922140e+02
         vertex -2.646392e+02 1.096171e+02 -2.262194e+02
      endloop
   endfacet
   facet normal -7.250388e-01 3.003209e-01 -6.197790e-01
      outer loop
         vertex -2.646392e+02 1.096171e+02 -2.262194e+02
         vertex -2.848046e+02 1.311111e+02 -1.922140e+02
         vertex -2.814122e+02 1.359699e+02 -1.938281e+02
      endloop
   endfacet
   facet normal -7.250388e-01 3.003209e-01 -6.197790e-01
      outer loop
         vertex -2.646392e+02 1.096171e+02 -2.262194e+02
         vertex -2.814122e+02 1.359699e+02 -1.938281e+02
         vertex -2.777074e+02 1.403379e+02 -1.960456e+02
      endloop
   endfacet
   facet normal 7.250388e-01 -3.003209e-01 6.197790e-01
      outer loop
         vertex -1.229047e+02 9.859769e+01 -1.311408e+02
         vertex -1.260688e+02 1.008135e+02 -1.263658e+02
         vertex -1.758634e+02 4.210618e+01 -9.656161e+01
      endloop
   endfacet
   facet normal 7.250388e-01 -3.003209e-01 6.197790e-01
      outer loop
         vertex -1.758634e+02 4.210618e+01 -9.656161e+01
         vertex -1.260688e+02 1.008135e+02 -1.263658e+02
         vertex -1.295856e+02 1.022702e+02 -1.215458e+02
      endloop
   endfacet
   facet normal 7.250388e-01 -3.003209e-01 6.197790e-01
      outer loop
         vertex -1.442173e+02 1.994406e+01 -1.443212e+02
         vertex -1.400059e+02 2.239505e+01 -1.480601e+02
         vertex -1.141522e+02 7.802218e+01 -1.513500e+02
      endloop
   endfacet
   facet normal 7.250388e-01 -3.003209e-01 6.197790e-01
      outer loop
         vertex -1.758634e+02 4.210618e+01 -9.656161e+01
         vertex -1.148348e+02 8.316345e+01 -1.480601e+02
         vertex -1.160796e+02 8.787442e+01 -1.443212e+02
      endloop
   endfacet
   facet normal 7.250388e-01 -3.003209e-01 6.197790e-01
      outer loop
         vertex -1.148348e+02 8.316345e+01 -1.480601e+02
         vertex -1.758634e+02 4.210618e+01 -9.656161e+01
         vertex -1.141522e+02 7.802218e+01 -1.513500e+02
      endloop
   endfacet
   facet normal 7.250388e-01 -3.003209e-01 6.197790e-01
      outer loop
         vertex -1.141522e+02 7.802218e+01 -1.513500e+02
         vertex -1.758634e+02 4.210618e+01 -9.656161e+01
         vertex -1.751807e+02 3.696492e+01 -9.985149e+01
      endloop
   endfacet
   facet normal 7.250388e-01 -3.003209e-01 6.197790e-01
      outer loop
         vertex -1.141522e+02 7.802218e+01 -1.513500e+02
         vertex -1.751807e+02 3.696492e+01 -9.985149e+01
         vertex -1.739360e+02 3.225395e+01 -1.035904e+02
      endloop
   endfacet
   facet normal 7.250388e-01 -3.003209e-01 6.197790e-01
      outer loop
         vertex -1.739360e+02 3.225395e+01 -1.035904e+02
         vertex -1.721523e+02 2.806103e+01 -1.077086e+02
         vertex -1.141522e+02 7.802218e+01 -1.513500e+02
      endloop
   endfacet
   facet normal 7.250388e-01 -3.003209e-01 6.197790e-01
      outer loop
         vertex -1.141522e+02 7.802218e+01 -1.513500e+02
         vertex -1.721523e+02 2.806103e+01 -1.077086e+02
         vertex -1.698631e+02 2.446427e+01 -1.121296e+02
      endloop
   endfacet
   facet normal 7.250388e-01 -3.003209e-01 6.197790e-01
      outer loop
         vertex -1.141522e+02 7.802218e+01 -1.513500e+02
         vertex -1.698631e+02 2.446427e+01 -1.121296e+02
         vertex -1.671108e+02 2.153067e+01 -1.167708e+02
      endloop
   endfacet
   facet normal 7.250388e-01 -3.003209e-01 6.197790e-01
      outer loop
         vertex -1.141522e+02 7.802218e+01 -1.513500e+02
         vertex -1.282347e+02 3.371137e+01 -1.563471e+02
         vertex -1.248423e+02 3.857022e+01 -1.579612e+02
      endloop
   endfacet
   facet normal 7.250388e-01 -3.003209e-01 6.197790e-01
      outer loop
         vertex -1.160796e+02 8.787442e+01 -1.443212e+02
         vertex -1.178632e+02 9.206733e+01 -1.402030e+02
         vertex -1.758634e+02 4.210618e+01 -9.656161e+01
      endloop
   endfacet
   facet normal 7.250388e-01 -3.003209e-01 6.197790e-01
      outer loop
         vertex -1.758634e+02 4.210618e+01 -9.656161e+01
         vertex -1.178632e+02 9.206733e+01 -1.402030e+02
         vertex -1.201525e+02 9.566409e+01 -1.357821e+02
      endloop
   endfacet
   facet normal 7.250388e-01 -3.003209e-01 6.197790e-01
      outer loop
         vertex -1.758634e+02 4.210618e+01 -9.656161e+01
         vertex -1.201525e+02 9.566409e+01 -1.357821e+02
         vertex -1.229047e+02 9.859769e+01 -1.311408e+02
      endloop
   endfacet
   facet normal 7.250388e-01 -3.003209e-01 6.197790e-01
      outer loop
         vertex -1.758634e+02 4.210618e+01 -9.656161e+01
         vertex -1.415722e+02 1.018879e+02 -1.077086e+02
         vertex -1.457983e+02 1.001843e+02 -1.035904e+02
      endloop
   endfacet
   facet normal 7.250388e-01 -3.003209e-01 6.197790e-01
      outer loop
         vertex -1.671108e+02 2.153067e+01 -1.167708e+02
         vertex -1.639468e+02 1.931488e+01 -1.215458e+02
         vertex -1.141522e+02 7.802218e+01 -1.513500e+02
      endloop
   endfacet
   facet normal 7.250388e-01 -3.003209e-01 6.197790e-01
      outer loop
         vertex -1.141522e+02 7.802218e+01 -1.513500e+02
         vertex -1.639468e+02 1.931488e+01 -1.215458e+02
         vertex -1.604300e+02 1.785817e+01 -1.263658e+02
      endloop
   endfacet
   facet normal 7.250388e-01 -3.003209e-01 6.197790e-01
      outer loop
         vertex -1.141522e+02 7.802218e+01 -1.513500e+02
         vertex -1.604300e+02 1.785817e+01 -1.263658e+02
         vertex -1.566259e+02 1.718767e+01 -1.311408e+02
      endloop
   endfacet
   facet normal 7.250388e-01 -3.003209e-01 6.197790e-01
      outer loop
         vertex -1.400059e+02 2.239505e+01 -1.480601e+02
         vertex -1.358878e+02 2.554775e+01 -1.513500e+02
         vertex -1.141522e+02 7.802218e+01 -1.513500e+02
      endloop
   endfacet
   facet normal 7.250388e-01 -3.003209e-01 6.197790e-01
      outer loop
         vertex -1.141522e+02 7.802218e+01 -1.513500e+02
         vertex -1.358878e+02 2.554775e+01 -1.513500e+02
         vertex -1.319395e+02 2.934343e+01 -1.541296e+02
      endloop
   endfacet
   facet normal 7.250388e-01 -3.003209e-01 6.197790e-01
      outer loop
         vertex -1.141522e+02 7.802218e+01 -1.513500e+02
         vertex -1.319395e+02 2.934343e+01 -1.541296e+02
         vertex -1.282347e+02 3.371137e+01 -1.563471e+02
      endloop
   endfacet
   facet normal 7.250388e-01 -3.003209e-01 6.197790e-01
      outer loop
         vertex -1.248423e+02 3.857022e+01 -1.579612e+02
         vertex -1.218256e+02 4.382946e+01 -1.589418e+02
         vertex -1.141522e+02 7.802218e+01 -1.513500e+02
      endloop
   endfacet
   facet normal 7.250388e-01 -3.003209e-01 6.197790e-01
      outer loop
         vertex -1.141522e+02 7.802218e+01 -1.513500e+02
         vertex -1.218256e+02 4.382946e+01 -1.589418e+02
         vertex -1.192407e+02 4.939112e+01 -1.592707e+02
      endloop
   endfacet
   facet normal 7.250388e-01 -3.003209e-01 6.197790e-01
      outer loop
         vertex -1.141522e+02 7.802218e+01 -1.513500e+02
         vertex -1.192407e+02 4.939112e+01 -1.592707e+02
         vertex -1.171358e+02 5.515160e+01 -1.589418e+02
      endloop
   endfacet
   facet normal 7.250388e-01 -3.003209e-01 6.197790e-01
      outer loop
         vertex -1.295856e+02 1.022702e+02 -1.215458e+02
         vertex -1.333897e+02 1.029407e+02 -1.167708e+02
         vertex -1.758634e+02 4.210618e+01 -9.656161e+01
      endloop
   endfacet
   facet normal 7.250388e-01 -3.003209e-01 6.197790e-01
      outer loop
         vertex -1.758634e+02 4.210618e+01 -9.656161e+01
         vertex -1.333897e+02 1.029407e+02 -1.167708e+02
         vertex -1.374102e+02 1.028125e+02 -1.121296e+02
      endloop
   endfacet
   facet normal 7.250388e-01 -3.003209e-01 6.197790e-01
      outer loop
         vertex -1.758634e+02 4.210618e+01 -9.656161e+01
         vertex -1.374102e+02 1.028125e+02 -1.121296e+02
         vertex -1.415722e+02 1.018879e+02 -1.077086e+02
      endloop
   endfacet
   facet normal 7.250388e-01 -3.003209e-01 6.197790e-01
      outer loop
         vertex -1.651732e+02 8.155815e+01 -8.995044e+01
         vertex -1.758634e+02 4.210618e+01 -9.656161e+01
         vertex -1.617808e+02 8.641699e+01 -9.156455e+01
      endloop
   endfacet
   facet normal 7.250388e-01 -3.003209e-01 6.197790e-01
      outer loop
         vertex -1.617808e+02 8.641699e+01 -9.156455e+01
         vertex -1.758634e+02 4.210618e+01 -9.656161e+01
         vertex -1.580760e+02 9.078494e+01 -9.378204e+01
      endloop
   endfacet
   facet normal 7.250388e-01 -3.003209e-01 6.197790e-01
      outer loop
         vertex -1.651732e+02 8.155815e+01 -8.995044e+01
         vertex -1.681899e+02 7.629891e+01 -8.896979e+01
         vertex -1.758634e+02 4.210618e+01 -9.656161e+01
      endloop
   endfacet
   facet normal 7.250388e-01 -3.003209e-01 6.197790e-01
      outer loop
         vertex -1.758634e+02 4.210618e+01 -9.656161e+01
         vertex -1.681899e+02 7.629891e+01 -8.896979e+01
         vertex -1.707748e+02 7.073725e+01 -8.864087e+01
      endloop
   endfacet
   facet normal 7.250388e-01 -3.003209e-01 6.197790e-01
      outer loop
         vertex -1.758634e+02 4.210618e+01 -9.656161e+01
         vertex -1.707748e+02 7.073725e+01 -8.864087e+01
         vertex -1.728797e+02 6.497677e+01 -8.896979e+01
      endloop
   endfacet
   facet normal 7.250388e-01 -3.003209e-01 6.197790e-01
      outer loop
         vertex -1.566259e+02 1.718767e+01 -1.311408e+02
         vertex -1.526053e+02 1.731589e+01 -1.357821e+02
         vertex -1.141522e+02 7.802218e+01 -1.513500e+02
      endloop
   endfacet
   facet normal 7.250388e-01 -3.003209e-01 6.197790e-01
      outer loop
         vertex -1.141522e+02 7.802218e+01 -1.513500e+02
         vertex -1.526053e+02 1.731589e+01 -1.357821e+02
         vertex -1.484433e+02 1.824043e+01 -1.402030e+02
      endloop
   endfacet
   facet normal 7.250388e-01 -3.003209e-01 6.197790e-01
      outer loop
         vertex -1.141522e+02 7.802218e+01 -1.513500e+02
         vertex -1.484433e+02 1.824043e+01 -1.402030e+02
         vertex -1.442173e+02 1.994406e+01 -1.443212e+02
      endloop
   endfacet
   facet normal 7.250388e-01 -3.003209e-01 6.197790e-01
      outer loop
         vertex -1.171358e+02 5.515160e+01 -1.589418e+02
         vertex -1.155501e+02 6.100359e+01 -1.579612e+02
         vertex -1.141522e+02 7.802218e+01 -1.513500e+02
      endloop
   endfacet
   facet normal 7.250388e-01 -3.003209e-01 6.197790e-01
      outer loop
         vertex -1.141522e+02 7.802218e+01 -1.513500e+02
         vertex -1.155501e+02 6.100359e+01 -1.579612e+02
         vertex -1.145132e+02 6.683809e+01 -1.563471e+02
      endloop
   endfacet
   facet normal 7.250388e-01 -3.003209e-01 6.197790e-01
      outer loop
         vertex -1.141522e+02 7.802218e+01 -1.513500e+02
         vertex -1.145132e+02 6.683809e+01 -1.563471e+02
         vertex -1.140443e+02 7.254640e+01 -1.541296e+02
      endloop
   endfacet
   facet normal 7.250388e-01 -3.003209e-01 6.197790e-01
      outer loop
         vertex -1.457983e+02 1.001843e+02 -1.035904e+02
         vertex -1.500096e+02 9.773331e+01 -9.985149e+01
         vertex -1.758634e+02 4.210618e+01 -9.656161e+01
      endloop
   endfacet
   facet normal 7.250388e-01 -3.003209e-01 6.197790e-01
      outer loop
         vertex -1.758634e+02 4.210618e+01 -9.656161e+01
         vertex -1.500096e+02 9.773331e+01 -9.985149e+01
         vertex -1.541277e+02 9.458061e+01 -9.656161e+01
      endloop
   endfacet
   facet normal 7.250388e-01 -3.003209e-01 6.197790e-01
      outer loop
         vertex -1.758634e+02 4.210618e+01 -9.656161e+01
         vertex -1.541277e+02 9.458061e+01 -9.656161e+01
         vertex -1.580760e+02 9.078494e+01 -9.378204e+01
      endloop
   endfacet
   facet normal 7.250388e-01 -3.003209e-01 6.197790e-01
      outer loop
         vertex -1.728797e+02 6.497677e+01 -8.896979e+01
         vertex -1.744654e+02 5.912477e+01 -8.995044e+01
         vertex -1.758634e+02 4.210618e+01 -9.656161e+01
      endloop
   endfacet
   facet normal 7.250388e-01 -3.003209e-01 6.197790e-01
      outer loop
         vertex -1.758634e+02 4.210618e+01 -9.656161e+01
         vertex -1.744654e+02 5.912477e+01 -8.995044e+01
         vertex -1.755024e+02 5.329028e+01 -9.156455e+01
      endloop
   endfacet
   facet normal 7.250388e-01 -3.003209e-01 6.197790e-01
      outer loop
         vertex -1.758634e+02 4.210618e+01 -9.656161e+01
         vertex -1.755024e+02 5.329028e+01 -9.156455e+01
         vertex -1.759713e+02 4.758197e+01 -9.378204e+01
      endloop
   endfacet
   facet normal 5.973815e-01 -1.735785e-01 -7.829469e-01
      outer loop
         vertex -1.192407e+02 4.939112e+01 -1.592707e+02
         vertex -2.367672e+02 1.047046e+02 -2.612054e+02
         vertex -1.171358e+02 5.515160e+01 -1.589418e+02
      endloop
   endfacet
   facet normal 6.384841e-01 -4.424902e-02 -7.683620e-01
      outer loop
         vertex -1.171358e+02 5.515160e+01 -1.589418e+02
         vertex -2.367672e+02 1.047046e+02 -2.612054e+02
         vertex -2.351815e+02 1.105565e+02 -2.602247e+02
      endloop
   endfacet
   facet normal 6.384841e-01 -4.424902e-02 -7.683620e-01
      outer loop
         vertex -1.171358e+02 5.515160e+01 -1.589418e+02
         vertex -2.351815e+02 1.105565e+02 -2.602247e+02
         vertex -1.155501e+02 6.100359e+01 -1.579612e+02
      endloop
   endfacet
   facet normal 6.676925e-01 8.590329e-02 -7.394642e-01
      outer loop
         vertex -1.155501e+02 6.100359e+01 -1.579612e+02
         vertex -2.351815e+02 1.105565e+02 -2.602247e+02
         vertex -2.341446e+02 1.163910e+02 -2.586106e+02
      endloop
   endfacet
   facet normal 6.676925e-01 8.590329e-02 -7.394642e-01
      outer loop
         vertex -1.155501e+02 6.100359e+01 -1.579612e+02
         vertex -2.341446e+02 1.163910e+02 -2.586106e+02
         vertex -1.145132e+02 6.683809e+01 -1.563471e+02
      endloop
   endfacet
   facet normal 6.844634e-01 2.144569e-01 -6.967913e-01
      outer loop
         vertex -1.145132e+02 6.683809e+01 -1.563471e+02
         vertex -2.341446e+02 1.163910e+02 -2.586106e+02
         vertex -2.336757e+02 1.220993e+02 -2.563931e+02
      endloop
   endfacet
   facet normal 6.844634e-01 2.144569e-01 -6.967913e-01
      outer loop
         vertex -1.145132e+02 6.683809e+01 -1.563471e+02
         vertex -2.336757e+02 1.220993e+02 -2.563931e+02
         vertex -1.140443e+02 7.254640e+01 -1.541296e+02
      endloop
   endfacet
   facet normal 6.884839e-01 3.390149e-01 -6.411387e-01
      outer loop
         vertex -1.140443e+02 7.254640e+01 -1.541296e+02
         vertex -2.336757e+02 1.220993e+02 -2.563931e+02
         vertex -2.337836e+02 1.275751e+02 -2.536135e+02
      endloop
   endfacet
   facet normal 6.884839e-01 3.390149e-01 -6.411387e-01
      outer loop
         vertex -1.140443e+02 7.254640e+01 -1.541296e+02
         vertex -2.337836e+02 1.275751e+02 -2.536135e+02
         vertex -1.141522e+02 7.802218e+01 -1.513500e+02
      endloop
   endfacet
   facet normal 6.796793e-01 4.572578e-01 -5.735428e-01
      outer loop
         vertex -1.141522e+02 7.802218e+01 -1.513500e+02
         vertex -2.337836e+02 1.275751e+02 -2.536135e+02
         vertex -2.344662e+02 1.327164e+02 -2.503237e+02
      endloop
   endfacet
   facet normal 6.796793e-01 4.572578e-01 -5.735428e-01
      outer loop
         vertex -1.141522e+02 7.802218e+01 -1.513500e+02
         vertex -2.344662e+02 1.327164e+02 -2.503237e+02
         vertex -1.148348e+02 8.316345e+01 -1.480601e+02
      endloop
   endfacet
   facet normal 6.582135e-01 5.669829e-01 -4.952629e-01
      outer loop
         vertex -1.148348e+02 8.316345e+01 -1.480601e+02
         vertex -2.344662e+02 1.327164e+02 -2.503237e+02
         vertex -2.357110e+02 1.374274e+02 -2.465848e+02
      endloop
   endfacet
   facet normal 6.582135e-01 5.669829e-01 -4.952629e-01
      outer loop
         vertex -1.148348e+02 8.316345e+01 -1.480601e+02
         vertex -2.357110e+02 1.374274e+02 -2.465848e+02
         vertex -1.160796e+02 8.787442e+01 -1.443212e+02
      endloop
   endfacet
   facet normal 6.244865e-01 6.661463e-01 -4.077570e-01
      outer loop
         vertex -1.160796e+02 8.787442e+01 -1.443212e+02
         vertex -2.357110e+02 1.374274e+02 -2.465848e+02
         vertex -2.374946e+02 1.416203e+02 -2.424665e+02
      endloop
   endfacet
   facet normal 6.244865e-01 6.661463e-01 -4.077570e-01
      outer loop
         vertex -1.160796e+02 8.787442e+01 -1.443212e+02
         vertex -2.374946e+02 1.416203e+02 -2.424665e+02
         vertex -1.178632e+02 9.206733e+01 -1.402030e+02
      endloop
   endfacet
   facet normal 5.791266e-01 7.529001e-01 -3.126560e-01
      outer loop
         vertex -1.178632e+02 9.206733e+01 -1.402030e+02
         vertex -2.374946e+02 1.416203e+02 -2.424665e+02
         vertex -2.397839e+02 1.452170e+02 -2.380456e+02
      endloop
   endfacet
   facet normal 5.791266e-01 7.529001e-01 -3.126560e-01
      outer loop
         vertex -1.178632e+02 9.206733e+01 -1.402030e+02
         vertex -2.397839e+02 1.452170e+02 -2.380456e+02
         vertex -1.201525e+02 9.566409e+01 -1.357821e+02
      endloop
   endfacet
   facet normal 5.229784e-01 8.256294e-01 -2.117301e-01
      outer loop
         vertex -1.201525e+02 9.566409e+01 -1.357821e+02
         vertex -2.397839e+02 1.452170e+02 -2.380456e+02
         vertex -2.425361e+02 1.481506e+02 -2.334044e+02
      endloop
   endfacet
   facet normal 5.229784e-01 8.256294e-01 -2.117301e-01
      outer loop
         vertex -1.201525e+02 9.566409e+01 -1.357821e+02
         vertex -2.425361e+02 1.481506e+02 -2.334044e+02
         vertex -1.229047e+02 9.859769e+01 -1.311408e+02
      endloop
   endfacet
   facet normal 4.570881e-01 8.829787e-01 -1.068602e-01
      outer loop
         vertex -1.229047e+02 9.859769e+01 -1.311408e+02
         vertex -2.425361e+02 1.481506e+02 -2.334044e+02
         vertex -2.457002e+02 1.503664e+02 -2.286293e+02
      endloop
   endfacet
   facet normal 4.570881e-01 8.829787e-01 -1.068602e-01
      outer loop
         vertex -1.229047e+02 9.859769e+01 -1.311408e+02
         vertex -2.457002e+02 1.503664e+02 -2.286293e+02
         vertex -1.260688e+02 1.008135e+02 -1.263658e+02
      endloop
   endfacet
   facet normal 3.826834e-01 9.238795e-01 7.777423e-11
      outer loop
         vertex -1.260688e+02 1.008135e+02 -1.263658e+02
         vertex -2.457002e+02 1.503664e+02 -2.286293e+02
         vertex -2.492170e+02 1.518231e+02 -2.238094e+02
      endloop
   endfacet
   facet normal 3.826834e-01 9.238795e-01 7.777423e-11
      outer loop
         vertex -1.260688e+02 1.008135e+02 -1.263658e+02
         vertex -2.492170e+02 1.518231e+02 -2.238094e+02
         vertex -1.295856e+02 1.022702e+02 -1.215458e+02
      endloop
   endfacet
   facet normal 3.011501e-01 9.475703e-01 1.068602e-01
      outer loop
         vertex -1.295856e+02 1.022702e+02 -1.215458e+02
         vertex -2.492170e+02 1.518231e+02 -2.238094e+02
         vertex -2.530211e+02 1.524936e+02 -2.190343e+02
      endloop
   endfacet
   facet normal 3.011501e-01 9.475703e-01 1.068602e-01
      outer loop
         vertex -1.295856e+02 1.022702e+02 -1.215458e+02
         vertex -2.530211e+02 1.524936e+02 -2.190343e+02
         vertex -1.333897e+02 1.029407e+02 -1.167708e+02
      endloop
   endfacet
   facet normal 2.140065e-01 9.536097e-01 2.117301e-01
      outer loop
         vertex -1.333897e+02 1.029407e+02 -1.167708e+02
         vertex -2.530211e+02 1.524936e+02 -2.190343e+02
         vertex -2.570416e+02 1.523654e+02 -2.143931e+02
      endloop
   endfacet
   facet normal 2.140065e-01 9.536097e-01 2.117301e-01
      outer loop
         vertex -1.333897e+02 1.029407e+02 -1.167708e+02
         vertex -2.570416e+02 1.523654e+02 -2.143931e+02
         vertex -1.374102e+02 1.028125e+02 -1.121296e+02
      endloop
   endfacet
   facet normal 1.228764e-01 9.418851e-01 3.126560e-01
      outer loop
         vertex -1.374102e+02 1.028125e+02 -1.121296e+02
         vertex -2.570416e+02 1.523654e+02 -2.143931e+02
         vertex -2.612036e+02 1.514409e+02 -2.099722e+02
      endloop
   endfacet
   facet normal 1.228764e-01 9.418851e-01 3.126560e-01
      outer loop
         vertex -1.374102e+02 1.028125e+02 -1.121296e+02
         vertex -2.612036e+02 1.514409e+02 -2.099722e+02
         vertex -1.415722e+02 1.018879e+02 -1.077086e+02
      endloop
   endfacet
   facet normal 2.945794e-02 9.126152e-01 4.077570e-01
      outer loop
         vertex -1.415722e+02 1.018879e+02 -1.077086e+02
         vertex -2.612036e+02 1.514409e+02 -2.099722e+02
         vertex -2.654297e+02 1.497373e+02 -2.058539e+02
      endloop
   endfacet
   facet normal 2.945794e-02 9.126152e-01 4.077570e-01
      outer loop
         vertex -1.415722e+02 1.018879e+02 -1.077086e+02
         vertex -2.654297e+02 1.497373e+02 -2.058539e+02
         vertex -1.457983e+02 1.001843e+02 -1.035904e+02
      endloop
   endfacet
   facet normal -6.450979e-02 8.663447e-01 4.952629e-01
      outer loop
         vertex -1.457983e+02 1.001843e+02 -1.035904e+02
         vertex -2.654297e+02 1.497373e+02 -2.058539e+02
         vertex -2.696410e+02 1.472863e+02 -2.021150e+02
      endloop
   endfacet
   facet normal -6.450979e-02 8.663447e-01 4.952629e-01
      outer loop
         vertex -1.457983e+02 1.001843e+02 -1.035904e+02
         vertex -2.696410e+02 1.472863e+02 -2.021150e+02
         vertex -1.500096e+02 9.773331e+01 -9.985149e+01
      endloop
   endfacet
   facet normal -1.572757e-01 8.039359e-01 5.735428e-01
      outer loop
         vertex -1.500096e+02 9.773331e+01 -9.985149e+01
         vertex -2.696410e+02 1.472863e+02 -2.021150e+02
         vertex -2.737592e+02 1.441336e+02 -1.988252e+02
      endloop
   endfacet
   facet normal -1.572757e-01 8.039359e-01 5.735428e-01
      outer loop
         vertex -1.500096e+02 9.773331e+01 -9.985149e+01
         vertex -2.737592e+02 1.441336e+02 -1.988252e+02
         vertex -1.541277e+02 9.458061e+01 -9.656161e+01
      endloop
   endfacet
   facet normal -2.471119e-01 7.265514e-01 6.411387e-01
      outer loop
         vertex -1.541277e+02 9.458061e+01 -9.656161e+01
         vertex -2.737592e+02 1.441336e+02 -1.988252e+02
         vertex -2.777074e+02 1.403379e+02 -1.960456e+02
      endloop
   endfacet
   facet normal -2.471119e-01 7.265514e-01 6.411387e-01
      outer loop
         vertex -1.541277e+02 9.458061e+01 -9.656161e+01
         vertex -2.777074e+02 1.403379e+02 -1.960456e+02
         vertex -1.580760e+02 9.078494e+01 -9.378204e+01
      endloop
   endfacet
   facet normal -3.323448e-01 6.356326e-01 6.967913e-01
      outer loop
         vertex -1.580760e+02 9.078494e+01 -9.378204e+01
         vertex -2.777074e+02 1.403379e+02 -1.960456e+02
         vertex -2.814122e+02 1.359699e+02 -1.938281e+02
      endloop
   endfacet
   facet normal -3.323448e-01 6.356326e-01 6.967913e-01
      outer loop
         vertex -1.580760e+02 9.078494e+01 -9.378204e+01
         vertex -2.814122e+02 1.359699e+02 -1.938281e+02
         vertex -1.617808e+02 8.641699e+01 -9.156455e+01
      endloop
   endfacet
   facet normal -4.113871e-01 5.328727e-01 7.394642e-01
      outer loop
         vertex -1.617808e+02 8.641699e+01 -9.156455e+01
         vertex -2.814122e+02 1.359699e+02 -1.938281e+02
         vertex -2.848046e+02 1.311111e+02 -1.922140e+02
      endloop
   endfacet
   facet normal -4.113871e-01 5.328727e-01 7.394642e-01
      outer loop
         vertex -1.617808e+02 8.641699e+01 -9.156455e+01
         vertex -2.848046e+02 1.311111e+02 -1.922140e+02
         vertex -1.651732e+02 8.155815e+01 -8.995044e+01
      endloop
   endfacet
   facet normal -4.827652e-01 4.201876e-01 7.683620e-01
      outer loop
         vertex -1.651732e+02 8.155815e+01 -8.995044e+01
         vertex -2.848046e+02 1.311111e+02 -1.922140e+02
         vertex -2.878213e+02 1.258519e+02 -1.912333e+02
      endloop
   endfacet
   facet normal -4.827652e-01 4.201876e-01 7.683620e-01
      outer loop
         vertex -1.651732e+02 8.155815e+01 -8.995044e+01
         vertex -2.878213e+02 1.258519e+02 -1.912333e+02
         vertex -1.681899e+02 7.629891e+01 -8.896979e+01
      endloop
   endfacet
   facet normal -5.451511e-01 2.996740e-01 7.829469e-01
      outer loop
         vertex -1.681899e+02 7.629891e+01 -8.896979e+01
         vertex -2.878213e+02 1.258519e+02 -1.912333e+02
         vertex -2.904062e+02 1.202902e+02 -1.909044e+02
      endloop
   endfacet
   facet normal -5.451511e-01 2.996740e-01 7.829469e-01
      outer loop
         vertex -1.681899e+02 7.629891e+01 -8.896979e+01
         vertex -2.904062e+02 1.202902e+02 -1.909044e+02
         vertex -1.707748e+02 7.073725e+01 -8.864087e+01
      endloop
   endfacet
   facet normal -5.973815e-01 1.735785e-01 7.829469e-01
      outer loop
         vertex -1.707748e+02 7.073725e+01 -8.864087e+01
         vertex -2.904062e+02 1.202902e+02 -1.909044e+02
         vertex -2.925111e+02 1.145297e+02 -1.912333e+02
      endloop
   endfacet
   facet normal -5.973815e-01 1.735785e-01 7.829469e-01
      outer loop
         vertex -1.707748e+02 7.073725e+01 -8.864087e+01
         vertex -2.925111e+02 1.145297e+02 -1.912333e+02
         vertex -1.728797e+02 6.497677e+01 -8.896979e+01
      endloop
   endfacet
   facet normal -6.384841e-01 4.424902e-02 7.683620e-01
      outer loop
         vertex -1.728797e+02 6.497677e+01 -8.896979e+01
         vertex -2.925111e+02 1.145297e+02 -1.912333e+02
         vertex -2.940968e+02 1.086777e+02 -1.922140e+02
      endloop
   endfacet
   facet normal -6.384841e-01 4.424902e-02 7.683620e-01
      outer loop
         vertex -1.728797e+02 6.497677e+01 -8.896979e+01
         vertex -2.940968e+02 1.086777e+02 -1.922140e+02
         vertex -1.744654e+02 5.912477e+01 -8.995044e+01
      endloop
   endfacet
   facet normal -6.676925e-01 -8.590329e-02 7.394642e-01
      outer loop
         vertex -1.744654e+02 5.912477e+01 -8.995044e+01
         vertex -2.940968e+02 1.086777e+02 -1.922140e+02
         vertex -2.951338e+02 1.028432e+02 -1.938281e+02
      endloop
   endfacet
   facet normal -6.676925e-01 -8.590329e-02 7.394642e-01
      outer loop
         vertex -1.744654e+02 5.912477e+01 -8.995044e+01
         vertex -2.951338e+02 1.028432e+02 -1.938281e+02
         vertex -1.755024e+02 5.329028e+01 -9.156455e+01
      endloop
   endfacet
   facet normal -6.844634e-01 -2.144569e-01 6.967913e-01
      outer loop
         vertex -1.755024e+02 5.329028e+01 -9.156455e+01
         vertex -2.951338e+02 1.028432e+02 -1.938281e+02
         vertex -2.956027e+02 9.713492e+01 -1.960456e+02
      endloop
   endfacet
   facet normal -6.844634e-01 -2.144569e-01 6.967913e-01
      outer loop
         vertex -1.755024e+02 5.329028e+01 -9.156455e+01
         vertex -2.956027e+02 9.713492e+01 -1.960456e+02
         vertex -1.759713e+02 4.758197e+01 -9.378204e+01
      endloop
   endfacet
   facet normal -6.884839e-01 -3.390149e-01 6.411387e-01
      outer loop
         vertex -1.759713e+02 4.758197e+01 -9.378204e+01
         vertex -2.956027e+02 9.713492e+01 -1.960456e+02
         vertex -2.954948e+02 9.165914e+01 -1.988252e+02
      endloop
   endfacet
   facet normal -6.884839e-01 -3.390149e-01 6.411387e-01
      outer loop
         vertex -1.759713e+02 4.758197e+01 -9.378204e+01
         vertex -2.954948e+02 9.165914e+01 -1.988252e+02
         vertex -1.758634e+02 4.210618e+01 -9.656161e+01
      endloop
   endfacet
   facet normal -6.796793e-01 -4.572578e-01 5.735428e-01
      outer loop
         vertex -1.758634e+02 4.210618e+01 -9.656161e+01
         vertex -2.954948e+02 9.165914e+01 -1.988252e+02
         vertex -2.948121e+02 8.651787e+01 -2.021150e+02
      endloop
   endfacet
   facet normal -6.796793e-01 -4.572578e-01 5.735428e-01
      outer loop
         vertex -1.758634e+02 4.210618e+01 -9.656161e+01
         vertex -2.948121e+02 8.651787e+01 -2.021150e+02
         vertex -1.751807e+02 3.696492e+01 -9.985149e+01
      endloop
   endfacet
   facet normal -6.582135e-01 -5.669829e-01 4.952629e-01
      outer loop
         vertex -1.751807e+02 3.696492e+01 -9.985149e+01
         vertex -2.948121e+02 8.651787e+01 -2.021150e+02
         vertex -2.935674e+02 8.180690e+01 -2.058539e+02
      endloop
   endfacet
   facet normal -6.582135e-01 -5.669829e-01 4.952629e-01
      outer loop
         vertex -1.751807e+02 3.696492e+01 -9.985149e+01
         vertex -2.935674e+02 8.180690e+01 -2.058539e+02
         vertex -1.739360e+02 3.225395e+01 -1.035904e+02
      endloop
   endfacet
   facet normal -6.244865e-01 -6.661463e-01 4.077570e-01
      outer loop
         vertex -1.739360e+02 3.225395e+01 -1.035904e+02
         vertex -2.935674e+02 8.180690e+01 -2.058539e+02
         vertex -2.917837e+02 7.761399e+01 -2.099722e+02
      endloop
   endfacet
   facet normal -6.244865e-01 -6.661463e-01 4.077570e-01
      outer loop
         vertex -1.739360e+02 3.225395e+01 -1.035904e+02
         vertex -2.917837e+02 7.761399e+01 -2.099722e+02
         vertex -1.721523e+02 2.806103e+01 -1.077086e+02
      endloop
   endfacet
   facet normal -5.791266e-01 -7.529001e-01 3.126560e-01
      outer loop
         vertex -1.721523e+02 2.806103e+01 -1.077086e+02
         vertex -2.917837e+02 7.761399e+01 -2.099722e+02
         vertex -2.894945e+02 7.401723e+01 -2.143931e+02
      endloop
   endfacet
   facet normal -5.791266e-01 -7.529001e-01 3.126560e-01
      outer loop
         vertex -1.721523e+02 2.806103e+01 -1.077086e+02
         vertex -2.894945e+02 7.401723e+01 -2.143931e+02
         vertex -1.698631e+02 2.446427e+01 -1.121296e+02
      endloop
   endfacet
   facet normal -5.229784e-01 -8.256294e-01 2.117301e-01
      outer loop
         vertex -1.698631e+02 2.446427e+01 -1.121296e+02
         vertex -2.894945e+02 7.401723e+01 -2.143931e+02
         vertex -2.867422e+02 7.108363e+01 -2.190343e+02
      endloop
   endfacet
   facet normal -5.229784e-01 -8.256294e-01 2.117301e-01
      outer loop
         vertex -1.698631e+02 2.446427e+01 -1.121296e+02
         vertex -2.867422e+02 7.108363e+01 -2.190343e+02
         vertex -1.671108e+02 2.153067e+01 -1.167708e+02
      endloop
   endfacet
   facet normal -4.570881e-01 -8.829787e-01 1.068602e-01
      outer loop
         vertex -1.671108e+02 2.153067e+01 -1.167708e+02
         vertex -2.867422e+02 7.108363e+01 -2.190343e+02
         vertex -2.835782e+02 6.886783e+01 -2.238094e+02
      endloop
   endfacet
   facet normal -4.570881e-01 -8.829787e-01 1.068602e-01
      outer loop
         vertex -1.671108e+02 2.153067e+01 -1.167708e+02
         vertex -2.835782e+02 6.886783e+01 -2.238094e+02
         vertex -1.639468e+02 1.931488e+01 -1.215458e+02
      endloop
   endfacet
   facet normal -3.826834e-01 -9.238795e-01 -7.777423e-11
      outer loop
         vertex -1.639468e+02 1.931488e+01 -1.215458e+02
         vertex -2.835782e+02 6.886783e+01 -2.238094e+02
         vertex -2.800614e+02 6.741112e+01 -2.286293e+02
      endloop
   endfacet
   facet normal -3.826834e-01 -9.238795e-01 -7.777423e-11
      outer loop
         vertex -1.639468e+02 1.931488e+01 -1.215458e+02
         vertex -2.800614e+02 6.741112e+01 -2.286293e+02
         vertex -1.604300e+02 1.785817e+01 -1.263658e+02
      endloop
   endfacet
   facet normal -3.011501e-01 -9.475703e-01 -1.068602e-01
      outer loop
         vertex -1.604300e+02 1.785817e+01 -1.263658e+02
         vertex -2.800614e+02 6.741112e+01 -2.286293e+02
         vertex -2.762573e+02 6.674063e+01 -2.334044e+02
      endloop
   endfacet
   facet normal -3.011501e-01 -9.475703e-01 -1.068602e-01
      outer loop
         vertex -1.604300e+02 1.785817e+01 -1.263658e+02
         vertex -2.762573e+02 6.674063e+01 -2.334044e+02
         vertex -1.566259e+02 1.718767e+01 -1.311408e+02
      endloop
   endfacet
   facet normal -2.140065e-01 -9.536097e-01 -2.117301e-01
      outer loop
         vertex -1.566259e+02 1.718767e+01 -1.311408e+02
         vertex -2.762573e+02 6.674063e+01 -2.334044e+02
         vertex -2.722368e+02 6.686884e+01 -2.380456e+02
      endloop
   endfacet
   facet normal -2.140065e-01 -9.536097e-01 -2.117301e-01
      outer loop
         vertex -1.566259e+02 1.718767e+01 -1.311408e+02
         vertex -2.722368e+02 6.686884e+01 -2.380456e+02
         vertex -1.526053e+02 1.731589e+01 -1.357821e+02
      endloop
   endfacet
   facet normal -1.228764e-01 -9.418851e-01 -3.126560e-01
      outer loop
         vertex -1.526053e+02 1.731589e+01 -1.357821e+02
         vertex -2.722368e+02 6.686884e+01 -2.380456e+02
         vertex -2.680747e+02 6.779338e+01 -2.424665e+02
      endloop
   endfacet
   facet normal -1.228764e-01 -9.418851e-01 -3.126560e-01
      outer loop
         vertex -1.526053e+02 1.731589e+01 -1.357821e+02
         vertex -2.680747e+02 6.779338e+01 -2.424665e+02
         vertex -1.484433e+02 1.824043e+01 -1.402030e+02
      endloop
   endfacet
   facet normal -2.945794e-02 -9.126152e-01 -4.077570e-01
      outer loop
         vertex -1.484433e+02 1.824043e+01 -1.402030e+02
         vertex -2.680747e+02 6.779338e+01 -2.424665e+02
         vertex -2.638487e+02 6.949701e+01 -2.465848e+02
      endloop
   endfacet
   facet normal -2.945794e-02 -9.126152e-01 -4.077570e-01
      outer loop
         vertex -1.484433e+02 1.824043e+01 -1.402030e+02
         vertex -2.638487e+02 6.949701e+01 -2.465848e+02
         vertex -1.442173e+02 1.994406e+01 -1.443212e+02
      endloop
   endfacet
   facet normal 6.450979e-02 -8.663447e-01 -4.952629e-01
      outer loop
         vertex -1.442173e+02 1.994406e+01 -1.443212e+02
         vertex -2.638487e+02 6.949701e+01 -2.465848e+02
         vertex -2.596373e+02 7.194801e+01 -2.503237e+02
      endloop
   endfacet
   facet normal 6.450979e-02 -8.663447e-01 -4.952629e-01
      outer loop
         vertex -1.442173e+02 1.994406e+01 -1.443212e+02
         vertex -2.596373e+02 7.194801e+01 -2.503237e+02
         vertex -1.400059e+02 2.239505e+01 -1.480601e+02
      endloop
   endfacet
   facet normal 1.572757e-01 -8.039359e-01 -5.735428e-01
      outer loop
         vertex -1.400059e+02 2.239505e+01 -1.480601e+02
         vertex -2.596373e+02 7.194801e+01 -2.503237e+02
         vertex -2.555192e+02 7.510071e+01 -2.536135e+02
      endloop
   endfacet
   facet normal 1.572757e-01 -8.039359e-01 -5.735428e-01
      outer loop
         vertex -1.400059e+02 2.239505e+01 -1.480601e+02
         vertex -2.555192e+02 7.510071e+01 -2.536135e+02
         vertex -1.358878e+02 2.554775e+01 -1.513500e+02
      endloop
   endfacet
   facet normal 2.471119e-01 -7.265514e-01 -6.411387e-01
      outer loop
         vertex -1.358878e+02 2.554775e+01 -1.513500e+02
         vertex -2.555192e+02 7.510071e+01 -2.536135e+02
         vertex -2.515709e+02 7.889638e+01 -2.563931e+02
      endloop
   endfacet
   facet normal 2.471119e-01 -7.265514e-01 -6.411387e-01
      outer loop
         vertex -1.358878e+02 2.554775e+01 -1.513500e+02
         vertex -2.515709e+02 7.889638e+01 -2.563931e+02
         vertex -1.319395e+02 2.934343e+01 -1.541296e+02
      endloop
   endfacet
   facet normal 3.323448e-01 -6.356326e-01 -6.967913e-01
      outer loop
         vertex -1.319395e+02 2.934343e+01 -1.541296e+02
         vertex -2.515709e+02 7.889638e+01 -2.563931e+02
         vertex -2.478661e+02 8.326432e+01 -2.586106e+02
      endloop
   endfacet
   facet normal 3.323448e-01 -6.356326e-01 -6.967913e-01
      outer loop
         vertex -1.319395e+02 2.934343e+01 -1.541296e+02
         vertex -2.478661e+02 8.326432e+01 -2.586106e+02
         vertex -1.282347e+02 3.371137e+01 -1.563471e+02
      endloop
   endfacet
   facet normal 4.113871e-01 -5.328727e-01 -7.394642e-01
      outer loop
         vertex -1.282347e+02 3.371137e+01 -1.563471e+02
         vertex -2.478661e+02 8.326432e+01 -2.586106e+02
         vertex -2.444737e+02 8.812317e+01 -2.602247e+02
      endloop
   endfacet
   facet normal 4.113871e-01 -5.328727e-01 -7.394642e-01
      outer loop
         vertex -1.282347e+02 3.371137e+01 -1.563471e+02
         vertex -2.444737e+02 8.812317e+01 -2.602247e+02
         vertex -1.248423e+02 3.857022e+01 -1.579612e+02
      endloop
   endfacet
   facet normal 4.827652e-01 -4.201876e-01 -7.683620e-01
      outer loop
         vertex -1.248423e+02 3.857022e+01 -1.579612e+02
         vertex -2.444737e+02 8.812317e+01 -2.602247e+02
         vertex -2.414570e+02 9.338241e+01 -2.612054e+02
      endloop
   endfacet
   facet normal 4.827652e-01 -4.201876e-01 -7.683620e-01
      outer loop
         vertex -1.248423e+02 3.857022e+01 -1.579612e+02
         vertex -2.414570e+02 9.338241e+01 -2.612054e+02
         vertex -1.218256e+02 4.382946e+01 -1.589418e+02
      endloop
   endfacet
   facet normal 5.451511e-01 -2.996740e-01 -7.829469e-01
      outer loop
         vertex -1.218256e+02 4.382946e+01 -1.589418e+02
         vertex -2.414570e+02 9.338241e+01 -2.612054e+02
         vertex -2.388721e+02 9.894407e+01 -2.615343e+02
      endloop
   endfacet
   facet normal 5.451511e-01 -2.996740e-01 -7.829469e-01
      outer loop
         vertex -1.218256e+02 4.382946e+01 -1.589418e+02
         vertex -2.388721e+02 9.894407e+01 -2.615343e+02
         vertex -1.192407e+02 4.939112e+01 -1.592707e+02
      endloop
   endfacet
   facet normal 5.973815e-01 -1.735785e-01 -7.829469e-01
      outer loop
         vertex -1.192407e+02 4.939112e+01 -1.592707e+02
         vertex -2.388721e+02 9.894407e+01 -2.615343e+02
         vertex -2.367672e+02 1.047046e+02 -2.612054e+02
      endloop
   endfacet
endsolid